<svg xmlns="http://www.w3.org/2000/svg" width="116" height="41" fill="none" viewBox="0 0 116 41">
  <g clip-path="url(#a)">
    <path fill="#000" d="M.65 40.455V.905h13.86v39.55H.65ZM13.635 8.92H9.19L2.365 33H6.81l6.825-24.08Zm.174 31.535V.905h20.685v39.55H13.81ZM27.004 33h6.615v-3.395h-2.1V8.92h-7.665v3.43h3.15v7.28c-.443-.793-1.073-1.447-1.89-1.96-.817-.513-1.867-.77-3.15-.77-2.357 0-4.118.828-5.285 2.485-1.167 1.657-1.75 3.663-1.75 6.02 0 2.45.595 4.387 1.785 5.81s2.823 2.135 4.9 2.135c1.423 0 2.567-.315 3.43-.945.863-.653 1.517-1.435 1.96-2.345V33Zm0-8.365v.385c0 1.167-.35 2.252-1.05 3.255-.677 1.003-1.61 1.505-2.8 1.505-.957 0-1.785-.397-2.485-1.19-.7-.793-1.05-1.948-1.05-3.465 0-1.61.373-2.788 1.12-3.535.77-.747 1.657-1.12 2.66-1.12 1.027 0 1.878.373 2.555 1.12.7.723 1.05 1.738 1.05 3.045Zm11.047 2.144c.16 1.254.638 2.256 1.435 3.008.82.73 1.937 1.094 3.35 1.094 1.435 0 2.654-.228 3.657-.684.32-.16.604-.239.855-.239.25-.023.478.068.683.273.228.205.342.433.342.684 0 .501-.205.855-.615 1.06-.388.205-.74.387-1.06.547a6.91 6.91 0 0 1-1.025.41c-.843.227-1.823.341-2.94.341-2.301 0-4.09-.638-5.366-1.914-1.253-1.299-1.88-3.133-1.88-5.503 0-2.05.536-3.76 1.607-5.127 1.207-1.526 2.905-2.29 5.092-2.29 2.097 0 3.749.707 4.956 2.12 1.14 1.321 1.71 2.973 1.71 4.956 0 .341-.126.638-.377.888-.227.251-.524.376-.888.376H38.05Zm4.135-6.186c-1.663 0-2.87.74-3.623 2.221-.273.524-.444 1.151-.512 1.88h8.271c-.068-1.321-.558-2.37-1.47-3.144-.729-.638-1.617-.957-2.666-.957Zm19.551-1.3c.228-.5.638-.74 1.23-.717.297 0 .57.125.821.376.25.25.376.49.376.718 0 .296-.046.558-.137.786L59.14 32.111a2.034 2.034 0 0 1-.615.718c-.25.205-.558.308-.922.308h-.274a1.5 1.5 0 0 1-.923-.308 2.035 2.035 0 0 1-.615-.718l-4.854-11.655a1.916 1.916 0 0 1-.136-.718c0-.273.114-.535.342-.786a1.07 1.07 0 0 1 .82-.376c.592 0 1.002.24 1.23.718l4.273 10.903 4.272-10.903Zm5.435.582c0-.387.125-.695.376-.923.25-.25.558-.376.923-.376.364 0 .66.125.888.376.228.228.342.536.342.923v11.997c0 .342-.114.638-.342.889-.228.25-.524.376-.888.376-.365 0-.673-.126-.923-.376a1.215 1.215 0 0 1-.376-.889V19.875Zm2.803-5.503c0 .41-.137.752-.41 1.026-.274.273-.616.41-1.026.41h-.17c-.411 0-.753-.137-1.026-.41-.251-.274-.376-.616-.376-1.026v-.102c0-.41.136-.752.41-1.026a1.35 1.35 0 0 1 .991-.41h.171c.41 0 .752.137 1.025.41.274.274.41.615.41 1.026v.102Zm11.04 16.509c1.048 0 2.039-.25 2.973-.752.32-.182.615-.274.889-.274.273-.022.513.092.718.342.205.25.307.547.307.889 0 .319-.216.615-.65.889-1.32.865-2.802 1.298-4.442 1.298-2.074 0-3.829-.649-5.264-1.948-1.504-1.39-2.245-3.213-2.222-5.469 0-2.255.74-4.078 2.222-5.468 1.413-1.322 3.167-1.971 5.263-1.949 1.117 0 2.029.149 2.735.445.729.273 1.299.558 1.709.854.433.274.65.581.65.923 0 .342-.103.627-.308.855-.206.228-.41.341-.616.341-.319 0-.649-.09-.99-.273-.958-.524-1.95-.775-2.975-.752-1.64 0-2.916.467-3.828 1.401-.888.912-1.333 2.12-1.333 3.623 0 1.504.445 2.723 1.333 3.658.912.911 2.188 1.367 3.828 1.367Zm9.912-4.102c.16 1.254.638 2.256 1.435 3.008.82.73 1.937 1.094 3.35 1.094 1.435 0 2.654-.228 3.657-.684.32-.16.604-.239.855-.239.25-.023.478.068.683.273.228.205.342.433.342.684 0 .501-.205.855-.615 1.06-.388.205-.74.387-1.06.547a6.91 6.91 0 0 1-1.025.41c-.843.227-1.823.341-2.94.341-2.301 0-4.09-.638-5.366-1.914-1.253-1.299-1.88-3.133-1.88-5.503 0-2.05.536-3.76 1.607-5.127 1.207-1.526 2.905-2.29 5.092-2.29 2.097 0 3.749.707 4.957 2.12 1.139 1.321 1.709 2.973 1.709 4.956 0 .341-.126.638-.376.888-.228.251-.525.376-.889.376h-9.536Zm4.135-6.186c-1.663 0-2.87.74-3.623 2.221-.273.524-.444 1.151-.512 1.88h8.271c-.068-1.321-.558-2.37-1.47-3.144-.729-.638-1.617-.957-2.666-.957Zm14.629 10.322c2.074 0 3.099-.65 3.077-1.948 0-.41-.206-.73-.616-.957-.41-.228-.923-.422-1.538-.581-.615-.16-1.287-.33-2.016-.513a9.969 9.969 0 0 1-2.051-.752 4.727 4.727 0 0 1-1.572-1.23c-.411-.524-.616-1.163-.616-1.915 0-.751.114-1.39.342-1.913a3.667 3.667 0 0 1 1.026-1.402c.979-.843 2.347-1.265 4.101-1.265a12.2 12.2 0 0 1 4.068.684c.25.091.444.25.581.479.159.205.239.433.239.683 0 .228-.114.456-.342.684-.205.228-.41.341-.615.341a2.64 2.64 0 0 1-.752-.136c-.889-.274-1.869-.41-2.94-.41s-1.879.182-2.426.547c-.547.364-.821.82-.821 1.367 0 .524.205.911.616 1.162.41.228.922.433 1.538.615.638.182 1.321.353 2.05.513a8.07 8.07 0 0 1 2.051.718c1.459.752 2.188 1.902 2.188 3.452 0 1.207-.456 2.176-1.367 2.905-.958.82-2.313 1.23-4.068 1.23-1.868 0-3.555-.421-5.058-1.264-.319-.228-.49-.502-.513-.82 0-.342.102-.627.307-.855.228-.25.456-.376.684-.376.228 0 .524.08.889.24 1.071.478 2.256.717 3.554.717Z"/>
  </g>
  <defs>
    <clipPath id="a">
      <path fill="#fff" d="M0 0h116v41H0z"/>
    </clipPath>
  </defs>
</svg>
