<svg xmlns="http://www.w3.org/2000/svg" width="35" height="41" fill="none" viewBox="0 0 35 41">
  <g clip-path="url(#a)">
    <path fill="#fff" d="M.65 40.455V.905h13.86v39.55H.65ZM13.635 8.92H9.19L2.365 33H6.81l6.825-24.08Zm.174 31.535V.905h20.685v39.55H13.81ZM27.004 33h6.615v-3.395h-2.1V8.92h-7.665v3.43h3.15v7.28c-.443-.793-1.073-1.447-1.89-1.96-.817-.513-1.867-.77-3.15-.77-2.357 0-4.118.828-5.285 2.485-1.167 1.657-1.75 3.663-1.75 6.02 0 2.45.595 4.387 1.785 5.81s2.823 2.135 4.9 2.135c1.423 0 2.567-.315 3.43-.945.863-.653 1.517-1.435 1.96-2.345V33Zm0-8.365v.385c0 1.167-.35 2.252-1.05 3.255-.677 1.003-1.61 1.505-2.8 1.505-.957 0-1.785-.397-2.485-1.19-.7-.793-1.05-1.948-1.05-3.465 0-1.61.373-2.788 1.12-3.535.77-.747 1.657-1.12 2.66-1.12 1.027 0 1.878.373 2.555 1.12.7.723 1.05 1.738 1.05 3.045Z"/>
  </g>
  <defs>
    <clipPath id="a">
      <path fill="#fff" d="M0 0h35v41H0z"/>
    </clipPath>
  </defs>
</svg>
